<svg id="Icons" height="512" viewBox="0 0 74 74" width="512" xmlns="http://www.w3.org/2000/svg">
    <path d="m27.5 72h-2.94a1 1 0 0 1 0-2h2.94a1 1 0 0 1 0 2z"/>
    <path d="m71 72h-26.56a1 1 0 0 1 0-2h25.56v-4h-66v4h13.56a1 1 0 1 1 0 2h-14.56a1 1 0 0 1 -1-1v-6a1 1 0 0 1 1-1h68a1 1 0 0 1 1 1v6a1 1 0 0 1 -1 1z"/>
    <path d="m37.43 72h-2.93a1 1 0 0 1 0-2h2.93a1 1 0 1 1 0 2z"/>
    <path d="m50 10h-47a1 1 0 0 1 -1-1v-6a1 1 0 0 1 1-1h47a1 1 0 0 1 1 1v6a1 1 0 0 1 -1 1zm-46-2h45v-4h-45z"/>
    <path d="m71 34h-24a1 1 0 0 1 -1-1v-6a1 1 0 0 1 1-1h24a1 1 0 0 1 1 1v6a1 1 0 0 1 -1 1zm-23-2h22v-4h-22z"/>
    <path d="m47 66h-40a1 1 0 0 1 -1-1v-56a1 1 0 0 1 1-1h40a1 1 0 0 1 1 1v56a1 1 0 0 1 -1 1zm-39-2h38v-54h-38z"/>
    <path d="m38.5 26h-7a1 1 0 0 1 -1-1v-7a1 1 0 0 1 1-1h7a1 1 0 0 1 1 1v7a1 1 0 0 1 -1 1zm-6-2h5v-5h-5z"/>
    <path d="m59.75 46.688h-5.5a1 1 0 0 1 -1-1v-5.5a1 1 0 0 1 1-1h5.5a1 1 0 0 1 1 1v5.5a1 1 0 0 1 -1 1zm-4.5-2h3.5v-3.5h-3.5z"/>
    <path d="m59.75 58.812h-5.5a1 1 0 0 1 -1-1v-5.5a1 1 0 0 1 1-1h5.5a1 1 0 0 1 1 1v5.5a1 1 0 0 1 -1 1zm-4.5-2h3.5v-3.5h-3.5z"/>
    <path d="m22.5 26h-7a1 1 0 0 1 -1-1v-7a1 1 0 0 1 1-1h7a1 1 0 0 1 1 1v7a1 1 0 0 1 -1 1zm-6-2h5v-5h-5z"/>
    <path d="m38.5 41.5h-7a1 1 0 0 1 -1-1v-7a1 1 0 0 1 1-1h7a1 1 0 0 1 1 1v7a1 1 0 0 1 -1 1zm-6-2h5v-5h-5z"/>
    <path d="m22.5 41.5h-7a1 1 0 0 1 -1-1v-7a1 1 0 0 1 1-1h7a1 1 0 0 1 1 1v7a1 1 0 0 1 -1 1zm-6-2h5v-5h-5z"/>
    <path d="m38.5 57h-7a1 1 0 0 1 -1-1v-7a1 1 0 0 1 1-1h7a1 1 0 0 1 1 1v7a1 1 0 0 1 -1 1zm-6-2h5v-5h-5z"/>
    <path d="m22.5 57h-7a1 1 0 0 1 -1-1v-7a1 1 0 0 1 1-1h7a1 1 0 0 1 1 1v7a1 1 0 0 1 -1 1zm-6-2h5v-5h-5z"/>
    <path d="m67 66h-20a1 1 0 0 1 -1-1v-32a1 1 0 0 1 1-1h20a1 1 0 0 1 1 1v32a1 1 0 0 1 -1 1zm-19-2h18v-30h-18z"/>
</svg>