<?xml version="1.0"?>
<svg xmlns="http://www.w3.org/2000/svg" width="512" height="512" viewBox="0 0 128 128">
    <g>
        <path d="M105.7,29.733a1.755,1.755,0,0,0-1.267-.635,1.8,1.8,0,0,0-1.322.51L76.958,55.766,62.964,69.76,29.608,103.115a1.752,1.752,0,0,0,.125,2.589A53.973,53.973,0,0,0,105.7,29.733ZM78.92,58.753H83V69.247H68.426ZM64,114.5a50.558,50.558,0,0,1-30.527-10.3L64.926,72.747h37.845a1.749,1.749,0,0,0,1.75-1.75V57a1.749,1.749,0,0,0-1.75-1.75H82.42l21.78-21.78A50.472,50.472,0,0,1,64,114.5Zm37.021-55.747V69.247H86.5V58.753Z"/>
        <path d="M64,0a64,64,0,1,0,64,64A64.072,64.072,0,0,0,64,0Zm0,124.5A60.5,60.5,0,1,1,124.5,64,60.57,60.57,0,0,1,64,124.5Z"/>
        <path d="M65.292,58.24,98.531,25a1.75,1.75,0,0,0-.12-2.585,53.972,53.972,0,0,0-75.995,76,1.747,1.747,0,0,0,1.266.631l.082,0A1.749,1.749,0,0,0,25,98.531l26.3-26.3ZM49.336,69.247H34V58.753H59.83ZM23.911,94.672A50.471,50.471,0,0,1,94.672,23.911L63.33,55.253h-35.1A4.756,4.756,0,0,0,23.478,60V68a4.756,4.756,0,0,0,4.75,4.75H45.836Zm4.317-25.425A1.252,1.252,0,0,1,26.978,68V60a1.252,1.252,0,0,1,1.25-1.25H30.5V69.247Z"/>
        <path d="M26.875,50.878a1.749,1.749,0,0,0,1.75-1.75A4.13,4.13,0,0,1,32.75,45H55.875A7.634,7.634,0,0,0,63.5,37.378V27.753a1.75,1.75,0,0,0-3.5,0v9.625A4.13,4.13,0,0,1,55.875,41.5H32.75a7.634,7.634,0,0,0-7.625,7.625A1.749,1.749,0,0,0,26.875,50.878Z"/>
        <path d="M45.125,38.628a9.511,9.511,0,0,0,9.5-9.5v-3.5a1.75,1.75,0,0,0-3.5,0v3.5a6.007,6.007,0,0,1-6,6,1.75,1.75,0,0,0,0,3.5Z"/>
    </g>
</svg>
