<?xml version="1.0" encoding="UTF-8"?>
<!DOCTYPE svg PUBLIC "-//W3C//DTD SVG 1.1//EN" "http://www.w3.org/Graphics/SVG/1.1/DTD/svg11.dtd">
<!-- Creator: CorelDRAW 2019 (64-Bit) -->
<svg xmlns="http://www.w3.org/2000/svg" xml:space="preserve" width="84.6666mm" height="92.6252mm" version="1.1" style="shape-rendering:geometricPrecision; text-rendering:geometricPrecision; image-rendering:optimizeQuality; fill-rule:evenodd; clip-rule:evenodd"
viewBox="0 0 8466.66 9262.52"
 xmlns:xlink="http://www.w3.org/1999/xlink">
 <defs>
  <style type="text/css">
   <![CDATA[
    .fil1 {fill:#EF7D36;fill-rule:nonzero}
    .fil0 {fill:#D22C26;fill-rule:nonzero}
   ]]>
  </style>
 </defs>
 <g id="Слой_x0020_1">
  <metadata id="CorelCorpID_0Corel-Layer"/>
  <g id="_2404156294672">
   <path class="fil0" d="M7812.12 5043.37c85.67,63.66 139.49,156.62 139.49,276.48 0,161.49 -132.22,320.59 -327.89,320.59 -168.88,0 -208.02,-122.35 -450.22,-122.35 -198.27,0 -455.2,141.88 -455.2,530.92 0,349.89 188.49,538.29 464.95,538.29 83.19,0 161.51,-41.55 161.51,-105.21 0,-51.3 -46.53,-70.92 -112.58,-70.92 -134.6,0 -315.63,-95.46 -315.63,-296.1 0,-220.17 166.39,-320.5 381.68,-320.5l119.96 0c413.45,0 618.97,227.55 618.97,555.42 0,518.77 -364.53,873.55 -939.58,873.55 -548.05,0 -1103.48,-374.42 -1103.48,-1174.53 0,-836.76 555.43,-1196.52 1125.6,-1196.52 318.01,0 543.16,80.8 692.42,190.88z"/>
   <path class="fil0" d="M4552.86 6271.7c0,-44.03 14.64,-63.66 41.54,-63.66 19.63,0 34.26,12.25 51.4,46.52l340.12 660.63c129.74,252.07 269.21,310.75 418.45,310.75 256.95,0 398.81,-193.28 398.81,-435.47l0 -1512.15c0,-237.43 -136.99,-425.81 -389.04,-425.81 -252.07,0 -389.04,188.38 -389.04,425.81l0 528.53c0,44.02 -14.66,63.55 -41.66,63.55 -19.52,0 -34.17,-12.25 -51.31,-46.53l-340.13 -660.63c-129.71,-251.95 -264.2,-310.73 -418.43,-310.73 -256.83,0 -398.82,193.27 -398.82,435.56l0 1512.16c0,237.31 136.99,425.71 389.05,425.71 252.06,0 389.06,-188.4 389.06,-425.71l0 -528.53z"/>
   <path class="fil0" d="M1217.73 6792.89l0 -347.51c0,-29.28 12.25,-51.3 41.64,-51.3 39.16,0 48.92,39.14 58.67,58.68 56.3,134.59 220.19,420.82 371.93,589.69 102.81,112.58 230.03,183.52 364.63,183.52 227.55,0 418.35,-198.15 418.35,-411.06 0,-132.12 -56.2,-230.05 -163.9,-347.41 -137.09,-149.34 -298.49,-345.11 -357.26,-435.57 -22.04,-34.27 -24.41,-56.29 -24.41,-66.05 0,-27.01 14.64,-46.53 44.03,-73.43 68.56,-63.67 237.3,-222.66 330.36,-367.03 70.95,-110.08 100.23,-210.41 100.23,-293.6 0,-212.91 -193.29,-379.28 -403.69,-379.28 -134.6,0 -261.82,75.8 -347.51,215.29 -114.97,186.01 -251.95,401.3 -340.02,486.98 -22.02,22.02 -34.37,26.9 -51.41,26.9 -29.39,0 -41.64,-19.63 -41.64,-51.41l0 -244.68c0,-239.82 -141.87,-433.08 -398.81,-433.08 -259.33,0 -398.8,193.26 -398.8,433.08l0 1507.27c0,239.8 139.47,433.08 398.8,433.08 256.94,0 398.81,-193.28 398.81,-433.08z"/>
   <path class="fil1" d="M620.67 7473.13c-141.87,0 -205.54,68.55 -205.54,188.4 0,210.4 193.38,504.11 575.06,719.41 636.21,359.66 1727.44,462.47 3237.21,462.47 1509.76,0 2601.09,-102.81 3237.21,-462.47 381.77,-215.3 575.05,-509.01 575.05,-719.41 0,-119.85 -63.55,-188.4 -205.53,-188.4l-7213.46 0z"/>
   <path class="fil1" d="M7834.13 2802.02c141.97,0 205.54,-73.42 205.54,-205.54 0,-782.97 -1201.42,-2165.51 -3812.28,-2165.51 -2635.26,0 -3812.26,1382.54 -3812.26,2165.51 0,132.12 63.66,205.54 205.54,205.54l7213.46 0z"/>
   <path class="fil0" d="M2289.44 4710.59c396.41,0 606.93,-237.31 606.93,-535.9l0 -824.51c0,-146.86 -85.68,-264.32 -242.3,-264.32 -156.63,0 -242.19,117.46 -242.19,264.32l0 797.61c0,58.78 -34.28,127.22 -122.44,127.22 -88.07,0 -117.46,-68.44 -117.46,-127.22l0 -797.61c0,-146.86 -88.09,-264.32 -244.7,-264.32 -156.51,0 -242.2,117.46 -242.2,264.32l0 824.51c0,298.59 208.04,535.9 604.36,535.9z"/>
   <path class="fil0" d="M6441.82 4086.62c117.47,0 210.52,-70.93 210.52,-195.77 0,-124.73 -93.05,-195.67 -210.52,-195.67l-168.76 0c-41.64,0 -61.28,-24.5 -61.28,-56.28l0 -39.16c0,-31.89 19.64,-56.28 61.28,-56.28l220.18 0c136.99,0 244.69,-80.81 244.69,-227.56 0,-144.36 -107.7,-225.16 -244.69,-225.16l-462.48 0c-193.28,0 -286.34,112.58 -286.34,264.32l0 1079.07c0,151.62 93.06,264.2 286.34,264.2l462.48 0c136.99,0 244.69,-80.69 244.69,-227.54 0,-144.36 -107.7,-225.06 -244.69,-225.06l-220.18 0c-41.64,0 -61.28,-24.51 -61.28,-56.28l0 -46.53c0,-31.79 19.64,-56.3 61.28,-56.3l168.76 0z"/>
   <path class="fil0" d="M5480.22 3208.2c56.3,44.03 92.94,107.7 92.94,190.89 0,112.58 -88.05,220.17 -217.78,220.17 -112.47,0 -139.37,-83.19 -300.97,-83.19 -132.1,0 -303.37,97.85 -303.37,367.04 0,242.29 124.84,371.91 308.35,371.91 58.68,0 110.08,-29.29 110.08,-73.43 0,-34.16 -29.38,-48.92 -75.92,-48.92 -90.44,0 -210.4,-66.05 -210.4,-203.04 0,-154.22 112.58,-222.66 256.94,-222.66l78.31 0c274.08,0 411.06,156.61 411.06,384.16 0,357.27 -242.19,601.96 -626.35,601.96 -364.66,0 -734.06,-256.94 -734.06,-809.98 0,-577.44 369.4,-827.01 748.7,-827.01 215.39,0 359.76,56.28 462.47,132.1z"/>
   <path class="fil0" d="M3490.91 5314.98c0,-256.94 -149.24,-462.48 -423.32,-462.48 -274.08,0 -423.32,205.54 -423.32,462.48l0 1448.58c0,256.84 149.24,462.49 423.32,462.49 274.08,0 423.32,-205.65 423.32,-462.49l0 -1448.58z"/>
   <path class="fil0" d="M951.02 4331.31l-44.02 0c-41.65,0 -61.17,-24.41 -61.17,-56.3l0 -190.77c0,-31.89 19.52,-56.3 61.17,-56.3l44.02 0c117.47,0 151.76,78.31 151.76,149.24 0,63.57 -34.29,154.13 -151.76,154.13zm-105.19 -819.64c0,-31.89 19.52,-56.29 61.17,-56.29l31.77 0c105.31,0 137.1,73.33 137.1,136.98 0,58.68 -31.79,141.87 -137.1,141.87l-31.77 0c-41.65,0 -61.17,-24.4 -61.17,-56.18l0 -166.38zm565.17 354.78c-12.14,-9.87 -24.39,-19.64 -24.39,-29.39 0,-12.26 7.38,-17.14 19.52,-31.79 46.53,-53.9 92.96,-139.47 92.96,-264.31 0,-293.61 -198.16,-450.22 -506.52,-450.22l-291.1 0c-193.28,0 -286.34,112.58 -286.34,264.32l0 1079.07c0,151.63 93.06,264.21 286.34,264.21l345.01 0c325.38,0 523.64,-217.79 523.64,-489.38 0,-217.78 -129.71,-318.1 -159.12,-342.51z"/>
   <path class="fil0" d="M3605.92 3775.88l-34.27 0c-41.54,0 -61.17,-24.5 -61.17,-56.29l0 -166.38c0,-31.78 19.63,-56.29 61.17,-56.29l34.27 0c102.71,0 134.49,73.43 134.49,136.99 0,61.28 -31.78,141.97 -134.49,141.97zm560.3 509.01c-70.94,-93.06 -134.6,-173.75 -166.38,-259.44 -7.37,-19.52 -2.38,-36.66 19.64,-53.8 75.8,-58.78 163.89,-188.4 163.89,-393.92 0,-310.85 -256.85,-487 -567.69,-487l-276.46 0c-193.39,0 -286.33,112.59 -286.33,264.32l0 1091.33c0,146.76 85.67,264.22 242.28,264.22 156.64,0 242.2,-117.46 242.2,-264.22l0 -259.44c0,-31.77 14.75,-46.53 39.16,-46.53 29.39,0 39.15,17.14 44.03,46.53 22.02,124.84 80.8,293.61 146.85,379.29 83.21,110.09 161.51,144.37 239.82,144.37 127.22,0 237.31,-100.33 237.31,-225.18 0,-83.19 -34.27,-144.35 -78.32,-200.53z"/>
   <path class="fil0" d="M7401.04 3775.88l-34.26 0c-41.55,0 -61.18,-24.5 -61.18,-56.29l0 -166.38c0,-31.78 19.63,-56.29 61.18,-56.29l34.26 0c102.71,0 134.51,73.43 134.51,136.99 0,61.28 -31.8,141.97 -134.51,141.97zm560.32 509.01c-83.19,-105.31 -134.6,-173.75 -166.4,-259.44 -7.36,-19.52 -2.38,-36.66 19.64,-53.8 75.82,-58.78 163.9,-188.4 163.9,-393.92 0,-310.85 -256.95,-487 -567.69,-487l-276.47 0c-193.37,0 -286.33,112.59 -286.33,264.32l0 1091.33c0,146.76 85.69,264.22 242.3,264.22 156.62,0 242.2,-117.46 242.2,-264.22l0 -259.44c0,-31.77 14.75,-46.53 39.14,-46.53 29.39,0 39.16,17.14 44.05,46.53 22,124.84 80.8,293.61 146.85,379.29 83.19,110.09 161.5,144.37 239.8,144.37 127.22,0 237.31,-100.33 237.31,-225.18 0,-83.19 -34.26,-144.35 -78.3,-200.53z"/>
  </g>
 </g>
</svg>
